# xmcd
#
# Track frame offsets: 
#        150
#        11596
#        24414
#        37440
#        50359
#        63301
#        75523
#        86873
#        101531
#        113876
#        127866
#        136888
#        149440
#        163250
#        174196
#        186658
#        200121
#        209895
#        221272
#
# Disc length: 3058 seconds
#
# Revision: 0
# Processed by: cddbd v1.5.1PL0 Copyright (c) Steve Scherf et al.
# Submitted via: ExactAudioCopy v0.95a5
#
DISCID=1c0bf013
DTITLE=Kitty Wells - Honky Tonk Angels
DYEAR=2003
DGENRE=Country
TTITLE0=It Wasn't God Who Made Honky Tonk Angels
TTITLE1=Release Me
TTITLE2=Making Believe
TTITLE3=How Far Is Heaven
TTITLE4=This White Circle On My Finger
TTITLE5=Lonely Side Of Town
TTITLE6=Mommy For A Day
TTITLE7=One By One
TTITLE8=:eft To Right
TTITLE9=I Don't Claim To Be An Angel
TTITLE10=I'll Repossess My Heart
TTITLE11=As long As I Love
TTITLE12=Guilty
TTITLE13=Searching
TTITLE14=Password
TTITLE15=Paper Roses
TTITLE16=Whose Shoulder Will You Cry On
TTITLE17=Heaven's Just A Sin Away
TTITLE18=After Dark
EXTD=
EXTT0=
EXTT1=
EXTT2=
EXTT3=
EXTT4=
EXTT5=
EXTT6=
EXTT7=
EXTT8=
EXTT9=
EXTT10=
EXTT11=
EXTT12=
EXTT13=
EXTT14=
EXTT15=
EXTT16=
EXTT17=
EXTT18=
PLAYORDER=
